<?xml version="1.0" encoding="UTF-8"?>
<svg version="1.1" viewBox="0 0 32 32" xmlns="http://www.w3.org/2000/svg" xmlns:xlink="http://www.w3.org/1999/xlink">
  <path fill="#569cd6" d="M16.54,12.663h2.86v2.924h1.446l1.54007e-07,-7.04505e-10c0.676286,-0.00309369 1.34762,-0.115545 1.988,-0.333l1.19034e-07,-3.94064e-08c0.336291,-0.111329 0.660045,-0.257454 0.965999,-0.435999l1.14425e-07,1.58407e-07c-0.391373,-0.541803 -0.623444,-1.18225 -0.67,-1.849l-1.67517e-07,-1.35439e-06c-0.120343,-0.97299 0.129519,-1.95566 0.700001,-2.753l0.3,-0.348l0.358,0.288l-1.30241e-08,-9.54917e-09c0.949332,0.696042 1.59256,1.73238 1.795,2.892l-1.09139e-07,3.35212e-08c1.10376,-0.339011 2.29679,-0.22794 3.319,0.309l0.393,0.226l-0.207,0.4l-1.0545e-07,1.77527e-07c-0.856359,1.4417 -2.49764,2.22464 -4.157,1.983c-2.48,6.168 -7.871,9.088 -14.409,9.088c-3.378,0 -6.476,-1.263 -8.241,-4.259l-0.029,-0.049l-0.251998,-0.519l1.74678e-07,3.97196e-07c-0.581242,-1.32167 -0.808358,-2.77191 -0.659,-4.208l0.04,-0.433h2.445v-2.923h2.861v-2.863h5.721v-2.858h3.432v5.721Z"></path>
  <path fill="#d4d4d4" d="M7.08,13.346h0.2v2.067h-0.2Zm-0.376,0h0.2v2.067h-0.204v-2.067Zm-0.376,0h0.2v2.067h-0.2Zm-0.376,0h0.2v2.067h-0.2Zm-0.376,0h0.2v2.067h-0.2Zm-0.368,0h0.2v2.067h-0.2v-2.067Zm-0.208,-0.206h2.482v2.479h-2.482Zm2.859,-2.861h2.48v2.479h-2.476Zm2.077,0.207h0.2v2.066h-0.2Zm-0.376,0h0.2v2.066h-0.2Zm-0.376,0h0.2v2.066h-0.2v-2.066Zm-0.376,0h0.2v2.066h-0.2Zm-0.376,0h0.2v2.066h-0.2Zm-0.368,0h0.2v2.066h-0.2Zm-0.207,2.653h2.48v2.48h-2.474v-2.479Zm2.077,0.207h0.2v2.067h-0.2Zm-0.376,0h0.2v2.067h-0.2Zm-0.376,0h0.2v2.067h-0.2v-2.067Zm-0.376,0h0.2v2.067h-0.2Zm-0.376,0h0.2v2.067h-0.2Zm-0.368,0h0.2v2.067h-0.2Zm2.654,-0.207h2.484v2.48h-2.48v-2.479Zm2.076,0.207h0.208v2.067h-0.2Zm-0.376,0h0.2v2.067h-0.2Zm-0.376,0h0.2v2.067h-0.2Zm-0.376,0h0.2v2.067h-0.2Zm-0.376,0h0.2v2.067h-0.2Zm-0.368,0h0.2v2.067h-0.2Zm-0.206,-3.067h2.486v2.479h-2.48v-2.479Zm2.076,0.207h0.21v2.066h-0.2Zm-0.376,0h0.2v2.066h-0.2Zm-0.376,0h0.2v2.066h-0.2Zm-0.376,0h0.2v2.066h-0.2Zm-0.376,0h0.2v2.066h-0.2Zm-0.368,0h0.2v2.066h-0.2Zm2.654,2.653h2.479v2.48h-2.48v-2.479Zm2.076,0.207h0.2v2.067h-0.2Zm-0.376,0h0.2v2.067h-0.2Zm-0.376,0h0.2v2.067h-0.2Zm-0.376,0h0.2v2.067h-0.2Zm-0.376,0h0.2v2.067h-0.2Zm-0.368,0h0.192v2.067h-0.2v-2.067Zm-0.206,-3.067h2.479v2.479h-2.48v-2.479Zm2.076,0.207h0.2v2.066h-0.2Zm-0.376,0h0.2v2.066h-0.2Zm-0.376,0h0.2v2.066h-0.2Zm-0.376,0h0.2v2.066h-0.2Zm-0.376,0h0.2v2.066h-0.2Zm-0.368,0h0.192v2.066h-0.2v-2.066Zm-0.206,-3.067h2.479v2.481h-2.48v-2.481Zm2.076,0.206h0.2v2.066h-0.2Zm-0.376,0h0.2v2.066h-0.2Zm-0.376,0h0.2v2.066h-0.2Zm-0.376,0h0.2v2.066h-0.2Zm-0.376,0h0.2v2.066h-0.2Zm-0.368,0h0.192v2.066h-0.2v-2.066Zm2.654,5.514h2.479v2.48h-2.48v-2.479Zm2.076,0.207h0.195v2.067h-0.2v-2.067Zm-0.376,0h0.206v2.067h-0.206Zm-0.376,0h0.2v2.067h-0.2Zm-0.376,0h0.2v2.067h-0.2Zm-0.376,0h0.2v2.067h-0.205v-2.067Zm-0.368,0h0.2v2.067h-0.194v-2.067Z"></path>
  <path fill="#d4d4d4" d="M10.188,19.638h-2.98986e-08c0.377763,-1.65125e-08 0.684,0.306237 0.684,0.684c1.65125e-08,0.377763 -0.306237,0.684 -0.684,0.684c-0.377763,1.65125e-08 -0.684,-0.306237 -0.684,-0.684l7.10543e-15,7.33825e-08c-5.70406e-08,-0.377763 0.306237,-0.684 0.684,-0.684c9.26553e-09,0 2.06331e-08,0 2.98986e-08,-3.55271e-15Zm0,0.194l1.89376e-08,-1.57527e-11c0.060534,-5.03574e-05 0.120551,0.0111393 0.177,0.033l-3.14973e-08,1.79863e-08c-0.0959194,0.0547741 -0.129274,0.176935 -0.0745001,0.272855c0.0547741,0.0959194 0.176935,0.129274 0.272855,0.0745001c0.0323466,-0.0184713 0.058892,-0.0456088 0.0766453,-0.0783549l8.36113e-09,1.98761e-08c0.104933,0.249447 -0.0122189,0.536729 -0.261666,0.641663c-0.249447,0.104933 -0.536729,-0.0122189 -0.641663,-0.261666c-0.104933,-0.249447 0.0122189,-0.536729 0.261666,-0.641663c0.0597339,-0.0251278 0.123859,-0.0381572 0.188663,-0.0383338Z"></path>
  <path fill="#d4d4d4" d="M12.006,24.567l6.36133e-08,2.7106e-08c-1.39919,-0.596202 -2.52097,-1.69976 -3.14,-3.089l-1.96389e-07,5.25448e-08c-0.739621,0.197889 -1.49895,0.312929 -2.264,0.343c-0.333333,0.0186667 -0.681667,0.028 -1.045,0.028c-0.421333,0 -0.865,-0.0123333 -1.331,-0.037l-8.78382e-07,-9.14542e-07c1.82062,1.89557 4.3753,2.90613 7,2.769c0.261333,-3.63972e-08 0.521333,-0.00466672 0.779999,-0.0140001Z"></path>
</svg>
